{
  "source": "C:\\Users\\Peter\\Desktop\\stuff\\MIUN\\quantitative_research\\video_compression\\videos\\BVI-HD\\BVI-HD_CDVL_videos\\ORIG\\DiverFishAndRock_1920x1080_30fps.mp4",
  "output": "C:\\Users\\Peter\\Desktop\\stuff\\MIUN\\quantitative_research\\video_compression\\compressed_videos\\BVI-HD\\hevc\\2\\DiverFishAndRock_1920x1080_30fps_hevc.mp4",
  "codec": "hevc",
  "ok": "Input #0, mov,mp4,m4a,3gp,3g2,mj2, from 'C:\\Users\\Peter\\Desktop\\stuff\\MIUN\\quantitative_research\\video_compression\\videos\\BVI-HD\\BVI-HD_CDVL_videos\\ORIG\\DiverFishAndRock_1920x1080_30fps.mp4':\n  Metadata:\n    major_brand     : isom\n    minor_version   : 512\n    compatible_brands: isomiso2avc1mp41\n    encoder         : Lavf54.28.101\n  Duration: 00:00:05.00, start: 0.000000, bitrate: 228854 kb/s\n  Stream #0:0[0x1](und): Video: h264 (High 4:4:4 Predictive) (avc1 / 0x31637661), yuv420p(progressive), 1920x1080, 228851 kb/s, 30 fps, 30 tbr, 30 tbn (default)\n    Metadata:\n      handler_name    : VideoHandler\n      vendor_id       : [0][0][0][0]\n[out#0/mp4 @ 00000267c657a980] Codec AVOption b:a (set bitrate (in bits/s)) has not been used for any stream. The most likely reason is either wrong type (e.g. a video option with no video streams) or that it is a private option of some decoder which was not actually used for any stream.\nStream mapping:\n  Stream #0:0 -> #0:0 (h264 (native) -> hevc (libx265))\nPress [q] to stop, [?] for help\n[libx265 @ 00000267c6e1b7c0] Unknown option: \"aq-mode.\nx265 [info]: HEVC encoder version 4.1+190-8f11c33ac\nx265 [info]: build info [Windows][GCC 15.1.0][64 bit] 10bit\nx265 [info]: using cpu capabilities: MMX2 SSE2Fast LZCNT SSSE3 SSE4.2 AVX FMA3 BMI2 AVX2\nx265 [info]: Main 10 profile, Level-4 (Main tier)\nx265 [info]: Thread pool created using 12 threads\nx265 [info]: Slices                              : 1\nx265 [info]: frame threads / pool features       : 3 / wpp(17 rows)\nx265 [info]: Coding QT: max CU size, min CU size : 64 / 8\nx265 [info]: Residual QT: max TU size, max depth : 32 / 1 inter / 1 intra\nx265 [info]: ME / range / subpel / merge         : star / 57 / 3 / 3\nx265 [info]: Keyframe min / max / scenecut / bias  : 25 / 250 / 40 / 5.00 \nx265 [info]: Lookahead / bframes / badapt        : 25 / 4 / 2\nx265 [info]: b-pyramid / weightp / weightb       : 1 / 1 / 0\nx265 [info]: References / ref-limit  cu / depth  : 4 / on / on\nx265 [info]: AQ: mode / str / qg-size / cu-tree  : 2 / 1.0 / 32 / 1\nx265 [info]: Rate Control / qCompress            : ABR-2000 kbps / 0.60\nx265 [info]: VBV/HRD buffer / max-rate / init    : 2000 / 2000 / 0.750\nx265 [info]: tools: rect limit-modes rd=4 psy-rd=2.00 rdoq=2 psy-rdoq=1.00\nx265 [info]: tools: rskip mode=1 signhide tmvp strong-intra-smoothing lslices=4\nx265 [info]: tools: deblock sao dhdr10-info\nOutput #0, mp4, to 'C:\\Users\\Peter\\Desktop\\stuff\\MIUN\\quantitative_research\\video_compression\\compressed_videos\\BVI-HD\\hevc\\2\\DiverFishAndRock_1920x1080_30fps_hevc.mp4':\n  Metadata:\n    major_brand     : isom\n    minor_version   : 512\n    compatible_brands: isomiso2avc1mp41\n    encoder         : Lavf62.3.100\n  Stream #0:0(und): Video: hevc (hev1 / 0x31766568), yuv420p10le(tv, progressive), 1920x1080, q=2-31, 2000 kb/s, 30 fps, 15360 tbn (default)\n    Metadata:\n      encoder         : Lavc62.11.100 libx265\n      handler_name    : VideoHandler\n      vendor_id       : [0][0][0][0]\n    Side data:\n      cpb: bitrate max/min/avg: 2000000/0/2000000 buffer size: 2000000 vbv_delay: N/A\nframe=    0 fps=0.0 q=0.0 size=       0KiB time=N/A bitrate=N/A speed=N/A elapsed=0:00:00.51    \nframe=    0 fps=0.0 q=0.0 size=       0KiB time=N/A bitrate=N/A speed=N/A elapsed=0:00:01.11    \nframe=    0 fps=0.0 q=0.0 size=       0KiB time=N/A bitrate=N/A speed=N/A elapsed=0:00:01.64    \nframe=    0 fps=0.0 q=0.0 size=       0KiB time=N/A bitrate=N/A speed=N/A elapsed=0:00:02.19    \nframe=    0 fps=0.0 q=0.0 size=       0KiB time=N/A bitrate=N/A speed=N/A elapsed=0:00:02.70    \nframe=    0 fps=0.0 q=0.0 size=       0KiB time=N/A bitrate=N/A speed=N/A elapsed=0:00:03.21    \nframe=    0 fps=0.0 q=0.0 size=       0KiB time=N/A bitrate=N/A speed=N/A elapsed=0:00:03.74    \nframe=    0 fps=0.0 q=0.0 size=       0KiB time=N/A bitrate=N/A speed=N/A elapsed=0:00:04.24    \nframe=    0 fps=0.0 q=0.0 size=       0KiB time=N/A bitrate=N/A speed=N/A elapsed=0:00:04.76    \nframe=    0 fps=0.0 q=0.0 size=       0KiB time=N/A bitrate=N/A speed=N/A elapsed=0:00:05.28    \nframe=    0 fps=0.0 q=0.0 size=       0KiB time=N/A bitrate=N/A speed=N/A elapsed=0:00:05.80    \nframe=    0 fps=0.0 q=0.0 size=       0KiB time=N/A bitrate=N/A speed=N/A elapsed=0:00:06.31    \nframe=    1 fps=0.1 q=35.2 size=       0KiB time=-00:00:00.03 bitrate=N/A speed=N/A elapsed=0:00:06.84    \nframe=    1 fps=0.1 q=35.2 size=       0KiB time=-00:00:00.03 bitrate=N/A speed=N/A elapsed=0:00:07.36    \nframe=    3 fps=0.4 q=42.4 size=       0KiB time=00:00:00.03 bitrate=  10.6kbits/s speed=0.00423x elapsed=0:00:07.88    \nframe=    3 fps=0.4 q=42.4 size=       0KiB time=00:00:00.03 bitrate=  10.6kbits/s speed=0.00397x elapsed=0:00:08.39    \nframe=    3 fps=0.3 q=42.4 size=       0KiB time=00:00:00.03 bitrate=  10.6kbits/s speed=0.00373x elapsed=0:00:08.92    \nframe=    3 fps=0.3 q=42.4 size=       0KiB time=00:00:00.03 bitrate=  10.6kbits/s speed=0.00353x elapsed=0:00:09.44    \nframe=    4 fps=0.4 q=43.7 size=       0KiB time=00:00:00.06 bitrate=   5.3kbits/s speed=0.0067x elapsed=0:00:09.95    \nframe=    4 fps=0.4 q=43.7 size=       0KiB time=00:00:00.06 bitrate=   5.3kbits/s speed=0.00636x elapsed=0:00:10.47    \nframe=    5 fps=0.5 q=42.2 size=       0KiB time=00:00:00.10 bitrate=   3.5kbits/s speed=0.00908x elapsed=0:00:11.00    \nframe=    5 fps=0.4 q=42.2 size=       0KiB time=00:00:00.10 bitrate=   3.5kbits/s speed=0.00867x elapsed=0:00:11.53    \nframe=    6 fps=0.5 q=36.3 size=       0KiB time=00:00:00.13 bitrate=   2.6kbits/s speed=0.011x elapsed=0:00:12.08    \nframe=    6 fps=0.5 q=36.3 size=       0KiB time=00:00:00.13 bitrate=   2.6kbits/s speed=0.0106x elapsed=0:00:12.59    \nframe=    7 fps=0.5 q=40.3 size=       0KiB time=00:00:00.16 bitrate=   2.1kbits/s speed=0.0127x elapsed=0:00:13.11    \nframe=    7 fps=0.5 q=40.3 size=       0KiB time=00:00:00.16 bitrate=   2.1kbits/s speed=0.0122x elapsed=0:00:13.64    \nframe=    7 fps=0.5 q=40.3 size=       0KiB time=00:00:00.16 bitrate=   2.1kbits/s speed=0.0118x elapsed=0:00:14.17    \nframe=    7 fps=0.5 q=40.3 size=       0KiB time=00:00:00.16 bitrate=   2.1kbits/s speed=0.0113x elapsed=0:00:14.68    \nframe=    8 fps=0.5 q=40.0 size=       0KiB time=00:00:00.20 bitrate=   1.8kbits/s speed=0.0131x elapsed=0:00:15.24    \nframe=    8 fps=0.5 q=40.0 size=       0KiB time=00:00:00.20 bitrate=   1.8kbits/s speed=0.0127x elapsed=0:00:15.77    \nframe=    8 fps=0.5 q=40.0 size=       0KiB time=00:00:00.20 bitrate=   1.8kbits/s speed=0.0123x elapsed=0:00:16.31    \nframe=    8 fps=0.5 q=40.0 size=       0KiB time=00:00:00.20 bitrate=   1.8kbits/s speed=0.0119x elapsed=0:00:16.82    \nframe=    9 fps=0.5 q=39.7 size=       0KiB time=00:00:00.23 bitrate=   1.5kbits/s speed=0.0135x elapsed=0:00:17.34    \nframe=    9 fps=0.5 q=39.7 size=       0KiB time=00:00:00.23 bitrate=   1.5kbits/s speed=0.0131x elapsed=0:00:17.86    \nframe=   10 fps=0.5 q=34.5 size=       0KiB time=00:00:00.26 bitrate=   1.3kbits/s speed=0.0145x elapsed=0:00:18.38    \nframe=   10 fps=0.5 q=34.5 size=       0KiB time=00:00:00.26 bitrate=   1.3kbits/s speed=0.0141x elapsed=0:00:18.90    \nframe=   11 fps=0.6 q=38.9 size=       0KiB time=00:00:00.30 bitrate=   1.2kbits/s speed=0.0154x elapsed=0:00:19.42    \nframe=   11 fps=0.6 q=38.9 size=       0KiB time=00:00:00.30 bitrate=   1.2kbits/s speed=0.015x elapsed=0:00:19.95    \nframe=   11 fps=0.5 q=38.9 size=       0KiB time=00:00:00.30 bitrate=   1.2kbits/s speed=0.0147x elapsed=0:00:20.46    \nframe=   11 fps=0.5 q=38.9 size=       0KiB time=00:00:00.30 bitrate=   1.2kbits/s speed=0.0143x elapsed=0:00:20.98    \nframe=   12 fps=0.6 q=39.7 size=       0KiB time=00:00:00.33 bitrate=   1.1kbits/s speed=0.0155x elapsed=0:00:21.49    \nframe=   12 fps=0.5 q=39.7 size=       0KiB time=00:00:00.33 bitrate=   1.1kbits/s speed=0.0151x elapsed=0:00:22.02    \nframe=   12 fps=0.5 q=39.7 size=       0KiB time=00:00:00.33 bitrate=   1.1kbits/s speed=0.0148x elapsed=0:00:22.53    \nframe=   12 fps=0.5 q=39.7 size=       0KiB time=00:00:00.33 bitrate=   1.1kbits/s speed=0.0145x elapsed=0:00:23.04    \nframe=   13 fps=0.6 q=39.6 size=       0KiB time=00:00:00.36 bitrate=   1.0kbits/s speed=0.0156x elapsed=0:00:23.56    \nframe=   13 fps=0.5 q=39.6 size=       0KiB time=00:00:00.36 bitrate=   1.0kbits/s speed=0.0152x elapsed=0:00:24.09    \nframe=   14 fps=0.6 q=39.2 size=       0KiB time=00:00:00.40 bitrate=   0.9kbits/s speed=0.0162x elapsed=0:00:24.62    \nframe=   14 fps=0.6 q=39.2 size=       0KiB time=00:00:00.40 bitrate=   0.9kbits/s speed=0.0159x elapsed=0:00:25.17    \nframe=   15 fps=0.6 q=33.8 size=       0KiB time=00:00:00.43 bitrate=   0.8kbits/s speed=0.0169x elapsed=0:00:25.69    \nframe=   15 fps=0.6 q=33.8 size=       0KiB time=00:00:00.43 bitrate=   0.8kbits/s speed=0.0165x elapsed=0:00:26.22    \nframe=   15 fps=0.6 q=33.8 size=       0KiB time=00:00:00.43 bitrate=   0.8kbits/s speed=0.0162x elapsed=0:00:26.74    \nframe=   16 fps=0.6 q=38.0 size=       0KiB time=00:00:00.46 bitrate=   0.8kbits/s speed=0.0171x elapsed=0:00:27.25    \nframe=   16 fps=0.6 q=38.0 size=       0KiB time=00:00:00.46 bitrate=   0.8kbits/s speed=0.0168x elapsed=0:00:27.77    \nframe=   16 fps=0.6 q=38.0 size=       0KiB time=00:00:00.46 bitrate=   0.8kbits/s speed=0.0165x elapsed=0:00:28.31    \nframe=   16 fps=0.6 q=38.0 size=       0KiB time=00:00:00.46 bitrate=   0.8kbits/s speed=0.0162x elapsed=0:00:28.84    \nframe=   17 fps=0.6 q=39.1 size=       0KiB time=00:00:00.50 bitrate=   0.7kbits/s speed=0.017x elapsed=0:00:29.36    \nframe=   17 fps=0.6 q=39.1 size=       0KiB time=00:00:00.50 bitrate=   0.7kbits/s speed=0.0167x elapsed=0:00:29.90    \nframe=   17 fps=0.6 q=39.1 size=       0KiB time=00:00:00.50 bitrate=   0.7kbits/s speed=0.0164x elapsed=0:00:30.44    \nframe=   18 fps=0.6 q=38.9 size=       0KiB time=00:00:00.53 bitrate=   0.7kbits/s speed=0.0172x elapsed=0:00:30.94    \nframe=   18 fps=0.6 q=38.9 size=       0KiB time=00:00:00.53 bitrate=   0.7kbits/s speed=0.0169x elapsed=0:00:31.47    \nframe=   19 fps=0.6 q=33.5 size=       0KiB time=00:00:00.56 bitrate=   0.6kbits/s speed=0.0177x elapsed=0:00:32.00    \nframe=   19 fps=0.6 q=33.5 size=       0KiB time=00:00:00.56 bitrate=   0.6kbits/s speed=0.0174x elapsed=0:00:32.53    \nframe=   19 fps=0.6 q=33.5 size=       0KiB time=00:00:00.56 bitrate=   0.6kbits/s speed=0.0171x elapsed=0:00:33.08    \nframe=   20 fps=0.6 q=37.0 size=       0KiB time=00:00:00.60 bitrate=   0.6kbits/s speed=0.0179x elapsed=0:00:33.60    \nframe=   20 fps=0.6 q=37.0 size=       0KiB time=00:00:00.60 bitrate=   0.6kbits/s speed=0.0176x elapsed=0:00:34.12    \nframe=   20 fps=0.6 q=37.0 size=       0KiB time=00:00:00.60 bitrate=   0.6kbits/s speed=0.0173x elapsed=0:00:34.64    \nframe=   20 fps=0.6 q=37.0 size=       0KiB time=00:00:00.60 bitrate=   0.6kbits/s speed=0.017x elapsed=0:00:35.20    \nframe=   20 fps=0.6 q=37.0 size=       0KiB time=00:00:00.60 bitrate=   0.6kbits/s speed=0.0168x elapsed=0:00:35.75    \nframe=   21 fps=0.6 q=38.9 size=       0KiB time=00:00:00.63 bitrate=   0.6kbits/s speed=0.0175x elapsed=0:00:36.28    \nframe=   21 fps=0.6 q=38.9 size=       0KiB time=00:00:00.63 bitrate=   0.6kbits/s speed=0.0172x elapsed=0:00:36.79    \nframe=   22 fps=0.6 q=38.8 size=       0KiB time=00:00:00.66 bitrate=   0.5kbits/s speed=0.0179x elapsed=0:00:37.32    \nframe=   22 fps=0.6 q=38.8 size=       0KiB time=00:00:00.66 bitrate=   0.5kbits/s speed=0.0176x elapsed=0:00:37.85    \nframe=   22 fps=0.6 q=38.8 size=       0KiB time=00:00:00.66 bitrate=   0.5kbits/s speed=0.0174x elapsed=0:00:38.38    \nframe=   23 fps=0.6 q=33.1 size=       0KiB time=00:00:00.70 bitrate=   0.5kbits/s speed=0.018x elapsed=0:00:38.90    \nframe=   24 fps=0.6 q=36.3 size=       0KiB time=00:00:00.73 bitrate=   0.5kbits/s speed=0.0186x elapsed=0:00:39.42    \nframe=   24 fps=0.6 q=36.3 size=       0KiB time=00:00:00.73 bitrate=   0.5kbits/s speed=0.0184x elapsed=0:00:39.93    \nframe=   24 fps=0.6 q=36.3 size=       0KiB time=00:00:00.73 bitrate=   0.5kbits/s speed=0.0181x elapsed=0:00:40.47    \nframe=   25 fps=0.6 q=38.0 size=       0KiB time=00:00:00.76 bitrate=   0.5kbits/s speed=0.0187x elapsed=0:00:40.99    \nframe=   25 fps=0.6 q=38.0 size=       0KiB time=00:00:00.76 bitrate=   0.5kbits/s speed=0.0185x elapsed=0:00:41.51    \nframe=   26 fps=0.6 q=37.9 size=       0KiB time=00:00:00.76 bitrate=   0.5kbits/s speed=0.0182x elapsed=0:00:42.03    \nframe=   26 fps=0.6 q=37.9 size=       0KiB time=00:00:00.80 bitrate=   0.4kbits/s speed=0.0188x elapsed=0:00:42.59    \nframe=   26 fps=0.6 q=37.9 size=       0KiB time=00:00:00.80 bitrate=   0.4kbits/s speed=0.0186x elapsed=0:00:43.11    \nframe=   26 fps=0.6 q=37.9 size=       0KiB time=00:00:00.80 bitrate=   0.4kbits/s speed=0.0183x elapsed=0:00:43.63    \nframe=   27 fps=0.6 q=38.0 size=       0KiB time=00:00:00.83 bitrate=   0.4kbits/s speed=0.0189x elapsed=0:00:44.16    \nframe=   27 fps=0.6 q=38.0 size=       0KiB time=00:00:00.83 bitrate=   0.4kbits/s speed=0.0186x elapsed=0:00:44.68    \nframe=   27 fps=0.6 q=38.0 size=       0KiB time=00:00:00.83 bitrate=   0.4kbits/s speed=0.0184x elapsed=0:00:45.21    \nframe=   27 fps=0.6 q=38.0 size=       0KiB time=00:00:00.83 bitrate=   0.4kbits/s speed=0.0182x elapsed=0:00:45.75    \nframe=   28 fps=0.6 q=33.3 size=       0KiB time=00:00:00.86 bitrate=   0.4kbits/s speed=0.0187x elapsed=0:00:46.28    \nframe=   28 fps=0.6 q=33.3 size=       0KiB time=00:00:00.86 bitrate=   0.4kbits/s speed=0.0185x elapsed=0:00:46.80    \nframe=   29 fps=0.6 q=35.1 size=       0KiB time=00:00:00.90 bitrate=   0.4kbits/s speed=0.019x elapsed=0:00:47.33    \nframe=   29 fps=0.6 q=35.1 size=       0KiB time=00:00:00.90 bitrate=   0.4kbits/s speed=0.0188x elapsed=0:00:47.87    \nframe=   30 fps=0.6 q=39.1 size=       0KiB time=00:00:00.93 bitrate=   0.4kbits/s speed=0.0193x elapsed=0:00:48.38    \nframe=   30 fps=0.6 q=39.1 size=       0KiB time=00:00:00.93 bitrate=   0.4kbits/s speed=0.0191x elapsed=0:00:48.90    \nframe=   30 fps=0.6 q=39.1 size=       0KiB time=00:00:00.93 bitrate=   0.4kbits/s speed=0.0189x elapsed=0:00:49.43    \nframe=   31 fps=0.6 q=38.8 size=       0KiB time=00:00:00.96 bitrate=   0.4kbits/s speed=0.0194x elapsed=0:00:49.95    \nframe=   31 fps=0.6 q=38.8 size=       0KiB time=00:00:00.96 bitrate=   0.4kbits/s speed=0.0192x elapsed=0:00:50.46    \nframe=   31 fps=0.6 q=38.8 size=       0KiB time=00:00:00.96 bitrate=   0.4kbits/s speed=0.019x elapsed=0:00:51.00    \nframe=   31 fps=0.6 q=38.8 size=       0KiB time=00:00:00.96 bitrate=   0.4kbits/s speed=0.0188x elapsed=0:00:51.53    \nframe=   31 fps=0.6 q=38.8 size=       0KiB time=00:00:00.96 bitrate=   0.4kbits/s speed=0.0186x elapsed=0:00:52.09    \nframe=   31 fps=0.6 q=38.8 size=       0KiB time=00:00:00.96 bitrate=   0.4kbits/s speed=0.0184x elapsed=0:00:52.67    \nframe=   32 fps=0.6 q=38.9 size=       0KiB time=00:00:01.00 bitrate=   0.4kbits/s speed=0.0188x elapsed=0:00:53.19    \nframe=   32 fps=0.6 q=38.9 size=       0KiB time=00:00:01.00 bitrate=   0.4kbits/s speed=0.0186x elapsed=0:00:53.71    \nframe=   33 fps=0.6 q=33.2 size=       0KiB time=00:00:01.03 bitrate=   0.3kbits/s speed=0.0191x elapsed=0:00:54.23    \nframe=   33 fps=0.6 q=33.2 size=       0KiB time=00:00:01.03 bitrate=   0.3kbits/s speed=0.0189x elapsed=0:00:54.75    \nframe=   33 fps=0.6 q=33.2 size=       0KiB time=00:00:01.03 bitrate=   0.3kbits/s speed=0.0187x elapsed=0:00:55.28    \nframe=   34 fps=0.6 q=36.7 size=     256KiB time=00:00:01.06 bitrate=1966.4kbits/s speed=0.0191x elapsed=0:00:55.80    \nframe=   34 fps=0.6 q=36.7 size=     256KiB time=00:00:01.06 bitrate=1966.4kbits/s speed=0.0189x elapsed=0:00:56.32    \nframe=   35 fps=0.6 q=39.0 size=     256KiB time=00:00:01.10 bitrate=1906.8kbits/s speed=0.0194x elapsed=0:00:56.82    \nframe=   35 fps=0.6 q=39.0 size=     256KiB time=00:00:01.10 bitrate=1906.8kbits/s speed=0.0192x elapsed=0:00:57.35    \nframe=   36 fps=0.6 q=38.8 size=     256KiB time=00:00:01.13 bitrate=1850.7kbits/s speed=0.0196x elapsed=0:00:57.86    \nframe=   37 fps=0.6 q=33.0 size=     256KiB time=00:00:01.16 bitrate=1797.9kbits/s speed=0.02x elapsed=0:00:58.37    \nframe=   37 fps=0.6 q=33.0 size=     256KiB time=00:00:01.16 bitrate=1797.9kbits/s speed=0.0198x elapsed=0:00:58.89    \nframe=   38 fps=0.6 q=36.6 size=     256KiB time=00:00:01.20 bitrate=1747.9kbits/s speed=0.0202x elapsed=0:00:59.41    \nframe=   38 fps=0.6 q=36.6 size=     256KiB time=00:00:01.20 bitrate=1747.9kbits/s speed=0.02x elapsed=0:00:59.92    \nframe=   38 fps=0.6 q=36.6 size=     256KiB time=00:00:01.20 bitrate=1747.9kbits/s speed=0.0199x elapsed=0:01:00.43    \nframe=   39 fps=0.6 q=38.9 size=     256KiB time=00:00:01.23 bitrate=1700.7kbits/s speed=0.0202x elapsed=0:01:00.95    \nframe=   39 fps=0.6 q=38.9 size=     256KiB time=00:00:01.23 bitrate=1700.7kbits/s speed=0.0201x elapsed=0:01:01.46    \nframe=   40 fps=0.6 q=38.2 size=     256KiB time=00:00:01.26 bitrate=1655.9kbits/s speed=0.0204x elapsed=0:01:01.98    \nframe=   40 fps=0.6 q=38.2 size=     256KiB time=00:00:01.26 bitrate=1655.9kbits/s speed=0.0203x elapsed=0:01:02.50    \nframe=   41 fps=0.7 q=32.8 size=     256KiB time=00:00:01.30 bitrate=1613.5kbits/s speed=0.0206x elapsed=0:01:03.01    \nframe=   42 fps=0.7 q=36.0 size=     256KiB time=00:00:01.33 bitrate=1573.1kbits/s speed=0.021x elapsed=0:01:03.53    \nframe=   43 fps=0.7 q=37.9 size=     256KiB time=00:00:01.36 bitrate=1534.8kbits/s speed=0.0213x elapsed=0:01:04.05    \nframe=   43 fps=0.7 q=37.9 size=     256KiB time=00:00:01.36 bitrate=1534.8kbits/s speed=0.0212x elapsed=0:01:04.56    \nframe=   43 fps=0.7 q=37.9 size=     256KiB time=00:00:01.36 bitrate=1534.8kbits/s speed=0.021x elapsed=0:01:05.08    \nframe=   44 fps=0.7 q=38.1 size=     256KiB time=00:00:01.40 bitrate=1498.2kbits/s speed=0.0213x elapsed=0:01:05.60    \nframe=   44 fps=0.7 q=38.1 size=     256KiB time=00:00:01.40 bitrate=1498.2kbits/s speed=0.0212x elapsed=0:01:06.12    \nframe=   45 fps=0.7 q=38.2 size=     256KiB time=00:00:01.43 bitrate=1463.4kbits/s speed=0.0215x elapsed=0:01:06.63    \nframe=   45 fps=0.7 q=38.2 size=     256KiB time=00:00:01.43 bitrate=1463.4kbits/s speed=0.0213x elapsed=0:01:07.16    \nframe=   46 fps=0.7 q=33.2 size=     256KiB time=00:00:01.46 bitrate=1430.1kbits/s speed=0.0217x elapsed=0:01:07.68    \nframe=   47 fps=0.7 q=36.0 size=     256KiB time=00:00:01.50 bitrate=1398.3kbits/s speed=0.022x elapsed=0:01:08.18    \nframe=   47 fps=0.7 q=36.0 size=     256KiB time=00:00:01.50 bitrate=1398.3kbits/s speed=0.0218x elapsed=0:01:08.70    \nframe=   47 fps=0.7 q=36.0 size=     256KiB time=00:00:01.50 bitrate=1398.3kbits/s speed=0.0217x elapsed=0:01:09.22    \nframe=   47 fps=0.7 q=36.0 size=     256KiB time=00:00:01.50 bitrate=1398.3kbits/s speed=0.0215x elapsed=0:01:09.75    \nframe=   48 fps=0.7 q=39.0 size=     256KiB time=00:00:01.53 bitrate=1367.9kbits/s speed=0.0218x elapsed=0:01:10.27    \nframe=   48 fps=0.7 q=39.0 size=     256KiB time=00:00:01.53 bitrate=1367.9kbits/s speed=0.0217x elapsed=0:01:10.79    \nframe=   48 fps=0.7 q=39.0 size=     256KiB time=00:00:01.53 bitrate=1367.9kbits/s speed=0.0215x elapsed=0:01:11.32    \nframe=   48 fps=0.7 q=39.0 size=     256KiB time=00:00:01.53 bitrate=1367.9kbits/s speed=0.0213x elapsed=0:01:11.86    \nframe=   49 fps=0.7 q=38.4 size=     256KiB time=00:00:01.56 bitrate=1338.8kbits/s speed=0.0216x elapsed=0:01:12.39    \nframe=   49 fps=0.7 q=38.4 size=     256KiB time=00:00:01.56 bitrate=1338.8kbits/s speed=0.0215x elapsed=0:01:12.93    \nframe=   49 fps=0.7 q=38.4 size=     256KiB time=00:00:01.56 bitrate=1338.8kbits/s speed=0.0213x elapsed=0:01:13.45    \nframe=   50 fps=0.7 q=32.7 size=     256KiB time=00:00:01.60 bitrate=1310.9kbits/s speed=0.0216x elapsed=0:01:13.98    \nframe=   50 fps=0.7 q=32.7 size=     256KiB time=00:00:01.60 bitrate=1310.9kbits/s speed=0.0215x elapsed=0:01:14.49    \nframe=   50 fps=0.7 q=32.7 size=     256KiB time=00:00:01.60 bitrate=1310.9kbits/s speed=0.0213x elapsed=0:01:15.01    \nframe=   51 fps=0.7 q=36.6 size=     256KiB time=00:00:01.63 bitrate=1284.2kbits/s speed=0.0216x elapsed=0:01:15.53    \nframe=   51 fps=0.7 q=36.6 size=     256KiB time=00:00:01.63 bitrate=1284.2kbits/s speed=0.0215x elapsed=0:01:16.05    \nframe=   51 fps=0.7 q=36.6 size=     256KiB time=00:00:01.63 bitrate=1284.2kbits/s speed=0.0213x elapsed=0:01:16.60    \nframe=   52 fps=0.7 q=38.4 size=     256KiB time=00:00:01.66 bitrate=1258.5kbits/s speed=0.0216x elapsed=0:01:17.11    \nframe=   52 fps=0.7 q=38.4 size=     256KiB time=00:00:01.66 bitrate=1258.5kbits/s speed=0.0215x elapsed=0:01:17.63    \nframe=   52 fps=0.7 q=38.4 size=     256KiB time=00:00:01.66 bitrate=1258.5kbits/s speed=0.0213x elapsed=0:01:18.18    \nframe=   52 fps=0.7 q=38.4 size=     256KiB time=00:00:01.66 bitrate=1258.5kbits/s speed=0.0212x elapsed=0:01:18.72    \nframe=   53 fps=0.7 q=38.2 size=     256KiB time=00:00:01.70 bitrate=1233.8kbits/s speed=0.0214x elapsed=0:01:19.26    \nframe=   53 fps=0.7 q=38.2 size=     256KiB time=00:00:01.70 bitrate=1233.8kbits/s speed=0.0213x elapsed=0:01:19.78    \nframe=   53 fps=0.7 q=38.2 size=     256KiB time=00:00:01.70 bitrate=1233.8kbits/s speed=0.0212x elapsed=0:01:20.29    \nframe=   54 fps=0.7 q=32.9 size=     256KiB time=00:00:01.73 bitrate=1210.1kbits/s speed=0.0214x elapsed=0:01:20.82    \nframe=   54 fps=0.7 q=32.9 size=     256KiB time=00:00:01.73 bitrate=1210.1kbits/s speed=0.0213x elapsed=0:01:21.34    \nframe=   55 fps=0.7 q=36.8 size=     256KiB time=00:00:01.76 bitrate=1187.3kbits/s speed=0.0216x elapsed=0:01:21.86    \nframe=   55 fps=0.7 q=36.8 size=     256KiB time=00:00:01.76 bitrate=1187.3kbits/s speed=0.0214x elapsed=0:01:22.38    \nframe=   55 fps=0.7 q=36.8 size=     256KiB time=00:00:01.76 bitrate=1187.3kbits/s speed=0.0213x elapsed=0:01:22.92    \nframe=   55 fps=0.7 q=36.8 size=     256KiB time=00:00:01.76 bitrate=1187.3kbits/s speed=0.0212x elapsed=0:01:23.44    \nframe=   56 fps=0.7 q=38.2 size=     256KiB time=00:00:01.80 bitrate=1165.3kbits/s speed=0.0214x elapsed=0:01:23.95    \nframe=   56 fps=0.7 q=38.2 size=     256KiB time=00:00:01.80 bitrate=1165.3kbits/s speed=0.0213x elapsed=0:01:24.47    \nframe=   56 fps=0.7 q=38.2 size=     256KiB time=00:00:01.80 bitrate=1165.3kbits/s speed=0.0212x elapsed=0:01:25.00    \nframe=   56 fps=0.7 q=38.2 size=     256KiB time=00:00:01.80 bitrate=1165.3kbits/s speed=0.021x elapsed=0:01:25.52    \nframe=   57 fps=0.7 q=38.1 size=     256KiB time=00:00:01.83 bitrate=1144.1kbits/s speed=0.0213x elapsed=0:01:26.03    \nframe=   57 fps=0.7 q=38.1 size=     256KiB time=00:00:01.83 bitrate=1144.1kbits/s speed=0.0212x elapsed=0:01:26.56    \nframe=   57 fps=0.7 q=38.1 size=     256KiB time=00:00:01.83 bitrate=1144.1kbits/s speed=0.021x elapsed=0:01:27.10    \nframe=   57 fps=0.7 q=38.1 size=     256KiB time=00:00:01.83 bitrate=1144.1kbits/s speed=0.0209x elapsed=0:01:27.62    \nframe=   58 fps=0.7 q=32.7 size=     256KiB time=00:00:01.86 bitrate=1123.7kbits/s speed=0.0212x elapsed=0:01:28.14    \nframe=   59 fps=0.7 q=34.0 size=     256KiB time=00:00:01.90 bitrate=1103.9kbits/s speed=0.0214x elapsed=0:01:28.66    \nframe=   59 fps=0.7 q=34.0 size=     256KiB time=00:00:01.90 bitrate=1103.9kbits/s speed=0.0213x elapsed=0:01:29.19    \nframe=   59 fps=0.7 q=34.0 size=     256KiB time=00:00:01.90 bitrate=1103.9kbits/s speed=0.0212x elapsed=0:01:29.73    \nframe=   60 fps=0.7 q=38.2 size=     256KiB time=00:00:01.93 bitrate=1084.9kbits/s speed=0.0214x elapsed=0:01:30.28    \nframe=   60 fps=0.7 q=38.2 size=     256KiB time=00:00:01.93 bitrate=1084.9kbits/s speed=0.0213x elapsed=0:01:30.89    \nframe=   60 fps=0.7 q=38.2 size=     256KiB time=00:00:01.93 bitrate=1084.9kbits/s speed=0.0211x elapsed=0:01:31.54    \nframe=   60 fps=0.7 q=38.2 size=     256KiB time=00:00:01.93 bitrate=1084.9kbits/s speed=0.021x elapsed=0:01:32.14    \nframe=   60 fps=0.6 q=38.2 size=     256KiB time=00:00:01.93 bitrate=1084.9kbits/s speed=0.0209x elapsed=0:01:32.71    \nframe=   60 fps=0.6 q=38.2 size=     256KiB time=00:00:01.93 bitrate=1084.9kbits/s speed=0.0207x elapsed=0:01:33.24    \nframe=   60 fps=0.6 q=38.2 size=     256KiB time=00:00:01.93 bitrate=1084.9kbits/s speed=0.0206x elapsed=0:01:33.84    \nframe=   60 fps=0.6 q=38.2 size=     256KiB time=00:00:01.93 bitrate=1084.9kbits/s speed=0.0205x elapsed=0:01:34.46    \nframe=   60 fps=0.6 q=38.2 size=     256KiB time=00:00:01.93 bitrate=1084.9kbits/s speed=0.0203x elapsed=0:01:35.02    \nframe=   61 fps=0.6 q=37.9 size=     256KiB time=00:00:01.96 bitrate=1066.5kbits/s speed=0.0206x elapsed=0:01:35.55    \nframe=   61 fps=0.6 q=37.9 size=     256KiB time=00:00:01.96 bitrate=1066.5kbits/s speed=0.0205x elapsed=0:01:36.10    \nframe=   62 fps=0.6 q=38.2 size=     256KiB time=00:00:02.00 bitrate=1048.8kbits/s speed=0.0207x elapsed=0:01:36.62    \nframe=   62 fps=0.6 q=38.2 size=     256KiB time=00:00:02.00 bitrate=1048.8kbits/s speed=0.0206x elapsed=0:01:37.16    \nframe=   62 fps=0.6 q=38.2 size=     256KiB time=00:00:02.00 bitrate=1048.8kbits/s speed=0.0205x elapsed=0:01:37.71    \nframe=   63 fps=0.6 q=32.9 size=     256KiB time=00:00:02.03 bitrate=1031.6kbits/s speed=0.0207x elapsed=0:01:38.22    \nframe=   64 fps=0.6 q=36.3 size=     256KiB time=00:00:02.06 bitrate=1014.9kbits/s speed=0.0209x elapsed=0:01:38.75    \nframe=   64 fps=0.6 q=36.3 size=     256KiB time=00:00:02.06 bitrate=1014.9kbits/s speed=0.0208x elapsed=0:01:39.28    \nframe=   64 fps=0.6 q=36.3 size=     256KiB time=00:00:02.06 bitrate=1014.9kbits/s speed=0.0207x elapsed=0:01:39.79    \nframe=   65 fps=0.6 q=38.1 size=     512KiB time=00:00:02.10 bitrate=1997.5kbits/s speed=0.0209x elapsed=0:01:40.31    \nframe=   66 fps=0.7 q=37.9 size=     512KiB time=00:00:02.13 bitrate=1966.2kbits/s speed=0.0212x elapsed=0:01:40.83    \nframe=   66 fps=0.7 q=37.9 size=     512KiB time=00:00:02.13 bitrate=1966.2kbits/s speed=0.021x elapsed=0:01:41.36    \nframe=   66 fps=0.6 q=37.9 size=     512KiB time=00:00:02.13 bitrate=1966.2kbits/s speed=0.0209x elapsed=0:01:41.88    \nframe=   68 fps=0.7 q=35.9 size=     512KiB time=00:00:02.20 bitrate=1906.7kbits/s speed=0.0215x elapsed=0:01:42.40    \nframe=   68 fps=0.7 q=35.9 size=     512KiB time=00:00:02.20 bitrate=1906.7kbits/s speed=0.0214x elapsed=0:01:42.93    \nframe=   68 fps=0.7 q=35.9 size=     512KiB time=00:00:02.20 bitrate=1906.7kbits/s speed=0.0213x elapsed=0:01:43.48    \nframe=   69 fps=0.7 q=37.3 size=     512KiB time=00:00:02.23 bitrate=1878.2kbits/s speed=0.0215x elapsed=0:01:44.01    \nframe=   70 fps=0.7 q=37.3 size=     512KiB time=00:00:02.26 bitrate=1850.6kbits/s speed=0.0217x elapsed=0:01:44.55    \nframe=   70 fps=0.7 q=37.3 size=     512KiB time=00:00:02.26 bitrate=1850.6kbits/s speed=0.0216x elapsed=0:01:45.10    \nframe=   70 fps=0.7 q=37.3 size=     512KiB time=00:00:02.26 bitrate=1850.6kbits/s speed=0.0215x elapsed=0:01:45.63    \nframe=   71 fps=0.7 q=32.6 size=     512KiB time=00:00:02.30 bitrate=1823.8kbits/s speed=0.0217x elapsed=0:01:46.15    \nframe=   71 fps=0.7 q=32.6 size=     512KiB time=00:00:02.30 bitrate=1823.8kbits/s speed=0.0216x elapsed=0:01:46.69    \nframe=   72 fps=0.7 q=36.0 size=     512KiB time=00:00:02.33 bitrate=1797.7kbits/s speed=0.0218x elapsed=0:01:47.23    \nframe=   72 fps=0.7 q=36.0 size=     512KiB time=00:00:02.33 bitrate=1797.7kbits/s speed=0.0216x elapsed=0:01:47.78    \nframe=   72 fps=0.7 q=36.0 size=     512KiB time=00:00:02.33 bitrate=1797.7kbits/s speed=0.0215x elapsed=0:01:48.32    \nframe=   72 fps=0.7 q=36.0 size=     512KiB time=00:00:02.33 bitrate=1797.7kbits/s speed=0.0214x elapsed=0:01:48.84    \nframe=   72 fps=0.7 q=36.0 size=     512KiB time=00:00:02.33 bitrate=1797.7kbits/s speed=0.0213x elapsed=0:01:49.39    \nframe=   72 fps=0.7 q=36.0 size=     512KiB time=00:00:02.33 bitrate=1797.7kbits/s speed=0.0212x elapsed=0:01:49.93    \nframe=   73 fps=0.7 q=37.9 size=     512KiB time=00:00:02.36 bitrate=1772.4kbits/s speed=0.0214x elapsed=0:01:50.45    \nframe=   73 fps=0.7 q=37.9 size=     512KiB time=00:00:02.36 bitrate=1772.4kbits/s speed=0.0213x elapsed=0:01:50.97    \nframe=   74 fps=0.7 q=37.4 size=     512KiB time=00:00:02.40 bitrate=1747.8kbits/s speed=0.0215x elapsed=0:01:51.50    \nframe=   74 fps=0.7 q=37.4 size=     512KiB time=00:00:02.40 bitrate=1747.8kbits/s speed=0.0214x elapsed=0:01:52.06    \nframe=   74 fps=0.7 q=37.4 size=     512KiB time=00:00:02.40 bitrate=1747.8kbits/s speed=0.0213x elapsed=0:01:52.63    \nframe=   74 fps=0.7 q=37.4 size=     512KiB time=00:00:02.40 bitrate=1747.8kbits/s speed=0.0212x elapsed=0:01:53.23    \nframe=   74 fps=0.7 q=37.4 size=     512KiB time=00:00:02.40 bitrate=1747.8kbits/s speed=0.0211x elapsed=0:01:53.78    \nframe=   75 fps=0.7 q=32.7 size=     512KiB time=00:00:02.43 bitrate=1723.8kbits/s speed=0.0213x elapsed=0:01:54.36    \nframe=   76 fps=0.7 q=35.8 size=     512KiB time=00:00:02.46 bitrate=1700.5kbits/s speed=0.0215x elapsed=0:01:54.88    \nframe=   76 fps=0.7 q=35.8 size=     512KiB time=00:00:02.46 bitrate=1700.5kbits/s speed=0.0214x elapsed=0:01:55.43    \nframe=   76 fps=0.7 q=35.8 size=     512KiB time=00:00:02.46 bitrate=1700.5kbits/s speed=0.0213x elapsed=0:01:56.00    \nframe=   76 fps=0.7 q=35.8 size=     512KiB time=00:00:02.46 bitrate=1700.5kbits/s speed=0.0212x elapsed=0:01:56.55    \nframe=   77 fps=0.7 q=37.9 size=     512KiB time=00:00:02.50 bitrate=1677.9kbits/s speed=0.0214x elapsed=0:01:57.07    \nframe=   78 fps=0.7 q=37.9 size=     512KiB time=00:00:02.53 bitrate=1655.8kbits/s speed=0.0215x elapsed=0:01:57.60    \nframe=   78 fps=0.7 q=37.9 size=     512KiB time=00:00:02.53 bitrate=1655.8kbits/s speed=0.0214x elapsed=0:01:58.16    \nframe=   78 fps=0.7 q=37.9 size=     512KiB time=00:00:02.53 bitrate=1655.8kbits/s speed=0.0213x elapsed=0:01:58.73    \nframe=   78 fps=0.7 q=37.9 size=     512KiB time=00:00:02.53 bitrate=1655.8kbits/s speed=0.0212x elapsed=0:01:59.29    \nframe=   78 fps=0.7 q=37.9 size=     512KiB time=00:00:02.53 bitrate=1655.8kbits/s speed=0.0211x elapsed=0:01:59.83    \nframe=   78 fps=0.6 q=37.9 size=     512KiB time=00:00:02.53 bitrate=1655.8kbits/s speed=0.0211x elapsed=0:02:00.34    \nframe=   78 fps=0.6 q=37.9 size=     512KiB time=00:00:02.53 bitrate=1655.8kbits/s speed=0.021x elapsed=0:02:00.87    \nframe=   79 fps=0.7 q=32.6 size=     512KiB time=00:00:02.56 bitrate=1634.3kbits/s speed=0.0211x elapsed=0:02:01.43    \nframe=   79 fps=0.6 q=32.6 size=     512KiB time=00:00:02.56 bitrate=1634.3kbits/s speed=0.021x elapsed=0:02:02.02    \nframe=   79 fps=0.6 q=32.6 size=     512KiB time=00:00:02.56 bitrate=1634.3kbits/s speed=0.0209x elapsed=0:02:02.57    \nframe=   79 fps=0.6 q=32.6 size=     512KiB time=00:00:02.56 bitrate=1634.3kbits/s speed=0.0208x elapsed=0:02:03.12    \nframe=   79 fps=0.6 q=32.6 size=     512KiB time=00:00:02.56 bitrate=1634.3kbits/s speed=0.0208x elapsed=0:02:03.66    \nframe=   80 fps=0.6 q=35.9 size=     512KiB time=00:00:02.60 bitrate=1613.3kbits/s speed=0.0209x elapsed=0:02:04.18    \nframe=   80 fps=0.6 q=35.9 size=     512KiB time=00:00:02.60 bitrate=1613.3kbits/s speed=0.0208x elapsed=0:02:04.73    \nframe=   80 fps=0.6 q=35.9 size=     512KiB time=00:00:02.60 bitrate=1613.3kbits/s speed=0.0207x elapsed=0:02:05.30    \nframe=   81 fps=0.6 q=37.9 size=     512KiB time=00:00:02.63 bitrate=1592.9kbits/s speed=0.0209x elapsed=0:02:05.91    \nframe=   81 fps=0.6 q=37.9 size=     512KiB time=00:00:02.63 bitrate=1592.9kbits/s speed=0.0208x elapsed=0:02:06.48    \nframe=   81 fps=0.6 q=37.9 size=     512KiB time=00:00:02.63 bitrate=1592.9kbits/s speed=0.0207x elapsed=0:02:07.03    \nframe=   81 fps=0.6 q=37.9 size=     512KiB time=00:00:02.63 bitrate=1592.9kbits/s speed=0.0206x elapsed=0:02:07.57    \nframe=   81 fps=0.6 q=37.9 size=     512KiB time=00:00:02.63 bitrate=1592.9kbits/s speed=0.0205x elapsed=0:02:08.17    \nframe=   82 fps=0.6 q=37.9 size=     512KiB time=00:00:02.66 bitrate=1573.0kbits/s speed=0.0207x elapsed=0:02:08.72    \nframe=   82 fps=0.6 q=37.9 size=     512KiB time=00:00:02.66 bitrate=1573.0kbits/s speed=0.0206x elapsed=0:02:09.28    \nframe=   82 fps=0.6 q=37.9 size=     512KiB time=00:00:02.66 bitrate=1573.0kbits/s speed=0.0205x elapsed=0:02:09.81    \nframe=   82 fps=0.6 q=37.9 size=     512KiB time=00:00:02.66 bitrate=1573.0kbits/s speed=0.0205x elapsed=0:02:10.32    \nframe=   83 fps=0.6 q=32.6 size=     512KiB time=00:00:02.70 bitrate=1553.6kbits/s speed=0.0206x elapsed=0:02:10.88    \nframe=   83 fps=0.6 q=32.6 size=     512KiB time=00:00:02.70 bitrate=1553.6kbits/s speed=0.0205x elapsed=0:02:11.44    \nframe=   84 fps=0.6 q=35.9 size=     512KiB time=00:00:02.73 bitrate=1534.6kbits/s speed=0.0207x elapsed=0:02:11.98    \nframe=   85 fps=0.6 q=37.9 size=     512KiB time=00:00:02.76 bitrate=1516.1kbits/s speed=0.0209x elapsed=0:02:12.55    \nframe=   85 fps=0.6 q=37.9 size=     512KiB time=00:00:02.76 bitrate=1516.1kbits/s speed=0.0208x elapsed=0:02:13.13    \nframe=   85 fps=0.6 q=37.9 size=     512KiB time=00:00:02.76 bitrate=1516.1kbits/s speed=0.0207x elapsed=0:02:13.72    \nframe=   85 fps=0.6 q=37.9 size=     512KiB time=00:00:02.76 bitrate=1516.1kbits/s speed=0.0206x elapsed=0:02:14.32    \nframe=   85 fps=0.6 q=37.9 size=     512KiB time=00:00:02.76 bitrate=1516.1kbits/s speed=0.0205x elapsed=0:02:14.96    \nframe=   85 fps=0.6 q=37.9 size=     512KiB time=00:00:02.76 bitrate=1516.1kbits/s speed=0.0204x elapsed=0:02:15.55    \nframe=   85 fps=0.6 q=37.9 size=     512KiB time=00:00:02.76 bitrate=1516.1kbits/s speed=0.0203x elapsed=0:02:16.11    \nframe=   85 fps=0.6 q=37.9 size=     512KiB time=00:00:02.76 bitrate=1516.1kbits/s speed=0.0202x elapsed=0:02:16.63    \nframe=   85 fps=0.6 q=37.9 size=     512KiB time=00:00:02.76 bitrate=1516.1kbits/s speed=0.0202x elapsed=0:02:17.19    \nframe=   85 fps=0.6 q=37.9 size=     512KiB time=00:00:02.76 bitrate=1516.1kbits/s speed=0.0201x elapsed=0:02:17.72    \nframe=   86 fps=0.6 q=38.0 size=     512KiB time=00:00:02.80 bitrate=1498.1kbits/s speed=0.0203x elapsed=0:02:18.24    \nframe=   86 fps=0.6 q=38.0 size=     512KiB time=00:00:02.80 bitrate=1498.1kbits/s speed=0.0202x elapsed=0:02:18.76    \nframe=   87 fps=0.6 q=32.7 size=     512KiB time=00:00:02.83 bitrate=1480.5kbits/s speed=0.0203x elapsed=0:02:19.29    \nframe=   87 fps=0.6 q=32.7 size=     512KiB time=00:00:02.83 bitrate=1480.5kbits/s speed=0.0203x elapsed=0:02:19.81    \nframe=   87 fps=0.6 q=32.7 size=     512KiB time=00:00:02.83 bitrate=1480.5kbits/s speed=0.0202x elapsed=0:02:20.33    \nframe=   88 fps=0.6 q=36.1 size=     512KiB time=00:00:02.86 bitrate=1463.3kbits/s speed=0.0204x elapsed=0:02:20.85    \nframe=   89 fps=0.6 q=38.1 size=     512KiB time=00:00:02.90 bitrate=1446.4kbits/s speed=0.0205x elapsed=0:02:21.35    \nframe=   90 fps=0.6 q=38.0 size=     512KiB time=00:00:02.93 bitrate=1430.0kbits/s speed=0.0207x elapsed=0:02:21.87    \nframe=   90 fps=0.6 q=38.0 size=     512KiB time=00:00:02.93 bitrate=1430.0kbits/s speed=0.0206x elapsed=0:02:22.39    \nframe=   90 fps=0.6 q=38.0 size=     512KiB time=00:00:02.93 bitrate=1430.0kbits/s speed=0.0205x elapsed=0:02:22.94    \nframe=   91 fps=0.6 q=32.9 size=     512KiB time=00:00:02.96 bitrate=1413.9kbits/s speed=0.0207x elapsed=0:02:23.48    \nframe=   92 fps=0.6 q=36.2 size=     512KiB time=00:00:03.00 bitrate=1398.2kbits/s speed=0.0208x elapsed=0:02:24.04    \nframe=   92 fps=0.6 q=36.2 size=     512KiB time=00:00:03.00 bitrate=1398.2kbits/s speed=0.0207x elapsed=0:02:24.58    \nframe=   92 fps=0.6 q=36.2 size=     512KiB time=00:00:03.00 bitrate=1398.2kbits/s speed=0.0207x elapsed=0:02:25.13    \nframe=   92 fps=0.6 q=36.2 size=     512KiB time=00:00:03.00 bitrate=1398.2kbits/s speed=0.0206x elapsed=0:02:25.71    \nframe=   92 fps=0.6 q=36.2 size=     512KiB time=00:00:03.00 bitrate=1398.2kbits/s speed=0.0205x elapsed=0:02:26.27    \nframe=   92 fps=0.6 q=36.2 size=     512KiB time=00:00:03.00 bitrate=1398.2kbits/s speed=0.0204x elapsed=0:02:26.87    \nframe=   93 fps=0.6 q=38.4 size=     512KiB time=00:00:03.03 bitrate=1382.9kbits/s speed=0.0206x elapsed=0:02:27.44    \nframe=   93 fps=0.6 q=38.4 size=     512KiB time=00:00:03.03 bitrate=1382.9kbits/s speed=0.0205x elapsed=0:02:27.98    \nframe=   93 fps=0.6 q=38.4 size=     512KiB time=00:00:03.03 bitrate=1382.9kbits/s speed=0.0204x elapsed=0:02:28.53    \nframe=   93 fps=0.6 q=38.4 size=     512KiB time=00:00:03.03 bitrate=1382.9kbits/s speed=0.0203x elapsed=0:02:29.12    \nframe=   93 fps=0.6 q=38.4 size=     512KiB time=00:00:03.03 bitrate=1382.9kbits/s speed=0.0203x elapsed=0:02:29.68    \nframe=   94 fps=0.6 q=38.2 size=     512KiB time=00:00:03.06 bitrate=1367.8kbits/s speed=0.0204x elapsed=0:02:30.23    \nframe=   94 fps=0.6 q=38.2 size=     512KiB time=00:00:03.06 bitrate=1367.8kbits/s speed=0.0203x elapsed=0:02:30.82    \nframe=   94 fps=0.6 q=38.2 size=     512KiB time=00:00:03.06 bitrate=1367.8kbits/s speed=0.0202x elapsed=0:02:31.44    \nframe=   94 fps=0.6 q=38.2 size=     512KiB time=00:00:03.06 bitrate=1367.8kbits/s speed=0.0202x elapsed=0:02:31.98    \nframe=   95 fps=0.6 q=32.7 size=     512KiB time=00:00:03.10 bitrate=1353.1kbits/s speed=0.0203x elapsed=0:02:32.53    \nframe=   95 fps=0.6 q=32.7 size=     512KiB time=00:00:03.10 bitrate=1353.1kbits/s speed=0.0202x elapsed=0:02:33.09    \nframe=   96 fps=0.6 q=36.3 size=     512KiB time=00:00:03.13 bitrate=1338.7kbits/s speed=0.0204x elapsed=0:02:33.61    \nframe=   96 fps=0.6 q=36.3 size=     512KiB time=00:00:03.13 bitrate=1338.7kbits/s speed=0.0203x elapsed=0:02:34.15    \nframe=   96 fps=0.6 q=36.3 size=     512KiB time=00:00:03.13 bitrate=1338.7kbits/s speed=0.0202x elapsed=0:02:34.73    \nframe=   96 fps=0.6 q=36.3 size=     512KiB time=00:00:03.13 bitrate=1338.7kbits/s speed=0.0202x elapsed=0:02:35.32    \nframe=   96 fps=0.6 q=36.3 size=     512KiB time=00:00:03.13 bitrate=1338.7kbits/s speed=0.0201x elapsed=0:02:35.86    \nframe=   97 fps=0.6 q=38.2 size=     768KiB time=00:00:03.16 bitrate=1986.9kbits/s speed=0.0202x elapsed=0:02:36.39    \nframe=   97 fps=0.6 q=38.2 size=     768KiB time=00:00:03.16 bitrate=1986.9kbits/s speed=0.0202x elapsed=0:02:36.95    \nframe=   97 fps=0.6 q=38.2 size=     768KiB time=00:00:03.16 bitrate=1986.9kbits/s speed=0.0201x elapsed=0:02:37.51    \nframe=   97 fps=0.6 q=38.2 size=     768KiB time=00:00:03.16 bitrate=1986.9kbits/s speed=0.02x elapsed=0:02:38.09    \nframe=   97 fps=0.6 q=38.2 size=     768KiB time=00:00:03.16 bitrate=1986.9kbits/s speed=0.02x elapsed=0:02:38.63    \nframe=   98 fps=0.6 q=38.2 size=     768KiB time=00:00:03.20 bitrate=1966.2kbits/s speed=0.0201x elapsed=0:02:39.21    \nframe=   98 fps=0.6 q=38.2 size=     768KiB time=00:00:03.20 bitrate=1966.2kbits/s speed=0.02x elapsed=0:02:39.77    \nframe=   98 fps=0.6 q=38.2 size=     768KiB time=00:00:03.20 bitrate=1966.2kbits/s speed=0.02x elapsed=0:02:40.29    \nframe=   98 fps=0.6 q=38.2 size=     768KiB time=00:00:03.20 bitrate=1966.2kbits/s speed=0.0199x elapsed=0:02:40.81    \nframe=   99 fps=0.6 q=32.6 size=     768KiB time=00:00:03.23 bitrate=1945.9kbits/s speed=0.02x elapsed=0:02:41.38    \nframe=   99 fps=0.6 q=32.6 size=     768KiB time=00:00:03.23 bitrate=1945.9kbits/s speed=0.02x elapsed=0:02:41.96    \nframe=   99 fps=0.6 q=32.6 size=     768KiB time=00:00:03.23 bitrate=1945.9kbits/s speed=0.0199x elapsed=0:02:42.54    \nframe=  100 fps=0.6 q=36.0 size=     768KiB time=00:00:03.23 bitrate=1945.9kbits/s speed=0.0198x elapsed=0:02:43.10    \nframe=  100 fps=0.6 q=36.0 size=     768KiB time=00:00:03.26 bitrate=1926.1kbits/s speed=0.02x elapsed=0:02:43.63    \nframe=  100 fps=0.6 q=36.0 size=     768KiB time=00:00:03.26 bitrate=1926.1kbits/s speed=0.0199x elapsed=0:02:44.17    \nframe=  100 fps=0.6 q=36.0 size=     768KiB time=00:00:03.26 bitrate=1926.1kbits/s speed=0.0198x elapsed=0:02:44.71    \nframe=  100 fps=0.6 q=36.0 size=     768KiB time=00:00:03.26 bitrate=1926.1kbits/s speed=0.0198x elapsed=0:02:45.27    \nframe=  100 fps=0.6 q=36.0 size=     768KiB time=00:00:03.26 bitrate=1926.1kbits/s speed=0.0197x elapsed=0:02:45.83    \nframe=  101 fps=0.6 q=38.2 size=     768KiB time=00:00:03.30 bitrate=1906.6kbits/s speed=0.0198x elapsed=0:02:46.37    \nframe=  101 fps=0.6 q=38.2 size=     768KiB time=00:00:03.30 bitrate=1906.6kbits/s speed=0.0198x elapsed=0:02:46.92    \nframe=  101 fps=0.6 q=38.2 size=     768KiB time=00:00:03.30 bitrate=1906.6kbits/s speed=0.0197x elapsed=0:02:47.46    \nframe=  102 fps=0.6 q=38.5 size=     768KiB time=00:00:03.33 bitrate=1887.5kbits/s speed=0.0198x elapsed=0:02:48.01    \nframe=  102 fps=0.6 q=38.5 size=     768KiB time=00:00:03.33 bitrate=1887.5kbits/s speed=0.0198x elapsed=0:02:48.54    \nframe=  102 fps=0.6 q=38.5 size=     768KiB time=00:00:03.33 bitrate=1887.5kbits/s speed=0.0197x elapsed=0:02:49.09    \nframe=  102 fps=0.6 q=38.5 size=     768KiB time=00:00:03.33 bitrate=1887.5kbits/s speed=0.0196x elapsed=0:02:49.66    \nframe=  103 fps=0.6 q=32.5 size=     768KiB time=00:00:03.36 bitrate=1868.9kbits/s speed=0.0198x elapsed=0:02:50.30    \nframe=  103 fps=0.6 q=32.5 size=     768KiB time=00:00:03.36 bitrate=1868.9kbits/s speed=0.0197x elapsed=0:02:50.90    \nframe=  103 fps=0.6 q=32.5 size=     768KiB time=00:00:03.36 bitrate=1868.9kbits/s speed=0.0196x elapsed=0:02:51.49    \nframe=  103 fps=0.6 q=32.5 size=     768KiB time=00:00:03.36 bitrate=1868.9kbits/s speed=0.0196x elapsed=0:02:52.03    \nframe=  103 fps=0.6 q=32.5 size=     768KiB time=00:00:03.36 bitrate=1868.9kbits/s speed=0.0195x elapsed=0:02:52.63    \nframe=  104 fps=0.6 q=36.4 size=     768KiB time=00:00:03.40 bitrate=1850.5kbits/s speed=0.0196x elapsed=0:02:53.21    \nframe=  104 fps=0.6 q=36.4 size=     768KiB time=00:00:03.40 bitrate=1850.5kbits/s speed=0.0196x elapsed=0:02:53.72    \nframe=  104 fps=0.6 q=36.4 size=     768KiB time=00:00:03.40 bitrate=1850.5kbits/s speed=0.0195x elapsed=0:02:54.31    \nframe=  104 fps=0.6 q=36.4 size=     768KiB time=00:00:03.40 bitrate=1850.5kbits/s speed=0.0194x elapsed=0:02:54.89    \nframe=  104 fps=0.6 q=36.4 size=     768KiB time=00:00:03.40 bitrate=1850.5kbits/s speed=0.0194x elapsed=0:02:55.44    \nframe=  104 fps=0.6 q=36.4 size=     768KiB time=00:00:03.40 bitrate=1850.5kbits/s speed=0.0193x elapsed=0:02:55.96    \nframe=  105 fps=0.6 q=38.4 size=     768KiB time=00:00:03.43 bitrate=1832.6kbits/s speed=0.0195x elapsed=0:02:56.48    \nframe=  105 fps=0.6 q=38.4 size=     768KiB time=00:00:03.43 bitrate=1832.6kbits/s speed=0.0194x elapsed=0:02:57.02    \nframe=  105 fps=0.6 q=38.4 size=     768KiB time=00:00:03.43 bitrate=1832.6kbits/s speed=0.0193x elapsed=0:02:57.56    \nframe=  106 fps=0.6 q=38.4 size=     768KiB time=00:00:03.46 bitrate=1814.9kbits/s speed=0.0195x elapsed=0:02:58.08    \nframe=  106 fps=0.6 q=38.4 size=     768KiB time=00:00:03.46 bitrate=1814.9kbits/s speed=0.0194x elapsed=0:02:58.61    \nframe=  107 fps=0.6 q=32.9 size=     768KiB time=00:00:03.50 bitrate=1797.7kbits/s speed=0.0195x elapsed=0:02:59.18    \nframe=  108 fps=0.6 q=36.4 size=     768KiB time=00:00:03.53 bitrate=1780.7kbits/s speed=0.0197x elapsed=0:02:59.70    \nframe=  108 fps=0.6 q=36.4 size=     768KiB time=00:00:03.53 bitrate=1780.7kbits/s speed=0.0196x elapsed=0:03:00.24    \nframe=  108 fps=0.6 q=36.4 size=     768KiB time=00:00:03.53 bitrate=1780.7kbits/s speed=0.0195x elapsed=0:03:00.76    \nframe=  109 fps=0.6 q=38.9 size=     768KiB time=00:00:03.56 bitrate=1764.1kbits/s speed=0.0197x elapsed=0:03:01.28    \nframe=  109 fps=0.6 q=38.9 size=     768KiB time=00:00:03.56 bitrate=1764.1kbits/s speed=0.0196x elapsed=0:03:01.80    \nframe=  110 fps=0.6 q=39.0 size=     768KiB time=00:00:03.60 bitrate=1747.7kbits/s speed=0.0197x elapsed=0:03:02.31    \nframe=  110 fps=0.6 q=39.0 size=     768KiB time=00:00:03.60 bitrate=1747.7kbits/s speed=0.0197x elapsed=0:03:02.83    \nframe=  110 fps=0.6 q=39.0 size=     768KiB time=00:00:03.60 bitrate=1747.7kbits/s speed=0.0196x elapsed=0:03:03.35    \nframe=  110 fps=0.6 q=39.0 size=     768KiB time=00:00:03.60 bitrate=1747.7kbits/s speed=0.0196x elapsed=0:03:03.87    \nframe=  110 fps=0.6 q=39.0 size=     768KiB time=00:00:03.60 bitrate=1747.7kbits/s speed=0.0195x elapsed=0:03:04.39    \nframe=  110 fps=0.6 q=39.0 size=     768KiB time=00:00:03.60 bitrate=1747.7kbits/s speed=0.0195x elapsed=0:03:04.90    \nframe=  111 fps=0.6 q=33.1 size=     768KiB time=00:00:03.63 bitrate=1731.7kbits/s speed=0.0196x elapsed=0:03:05.44    \nframe=  112 fps=0.6 q=37.0 size=     768KiB time=00:00:03.66 bitrate=1715.9kbits/s speed=0.0197x elapsed=0:03:05.97    \nframe=  112 fps=0.6 q=37.0 size=     768KiB time=00:00:03.66 bitrate=1715.9kbits/s speed=0.0197x elapsed=0:03:06.50    \nframe=  112 fps=0.6 q=37.0 size=     768KiB time=00:00:03.66 bitrate=1715.9kbits/s speed=0.0196x elapsed=0:03:07.02    \nframe=  112 fps=0.6 q=37.0 size=     768KiB time=00:00:03.66 bitrate=1715.9kbits/s speed=0.0195x elapsed=0:03:07.57    \nframe=  113 fps=0.6 q=39.0 size=     768KiB time=00:00:03.70 bitrate=1700.5kbits/s speed=0.0197x elapsed=0:03:08.12    \nframe=  113 fps=0.6 q=39.0 size=     768KiB time=00:00:03.70 bitrate=1700.5kbits/s speed=0.0196x elapsed=0:03:08.66    \nframe=  113 fps=0.6 q=39.0 size=     768KiB time=00:00:03.70 bitrate=1700.5kbits/s speed=0.0196x elapsed=0:03:09.22    \nframe=  113 fps=0.6 q=39.0 size=     768KiB time=00:00:03.70 bitrate=1700.5kbits/s speed=0.0195x elapsed=0:03:09.75    \nframe=  113 fps=0.6 q=39.0 size=     768KiB time=00:00:03.70 bitrate=1700.5kbits/s speed=0.0194x elapsed=0:03:10.29    \nframe=  113 fps=0.6 q=39.0 size=     768KiB time=00:00:03.70 bitrate=1700.5kbits/s speed=0.0194x elapsed=0:03:10.79    \nframe=  114 fps=0.6 q=39.0 size=     768KiB time=00:00:03.73 bitrate=1685.3kbits/s speed=0.0195x elapsed=0:03:11.31    \nframe=  115 fps=0.6 q=32.9 size=     768KiB time=00:00:03.76 bitrate=1670.4kbits/s speed=0.0196x elapsed=0:03:11.85    \nframe=  115 fps=0.6 q=32.9 size=     768KiB time=00:00:03.76 bitrate=1670.4kbits/s speed=0.0196x elapsed=0:03:12.38    \nframe=  115 fps=0.6 q=32.9 size=     768KiB time=00:00:03.76 bitrate=1670.4kbits/s speed=0.0195x elapsed=0:03:12.91    \nframe=  116 fps=0.6 q=37.0 size=     768KiB time=00:00:03.80 bitrate=1655.7kbits/s speed=0.0196x elapsed=0:03:13.45    \nframe=  117 fps=0.6 q=39.2 size=     768KiB time=00:00:03.83 bitrate=1641.3kbits/s speed=0.0198x elapsed=0:03:13.97    \nframe=  118 fps=0.6 q=39.0 size=     768KiB time=00:00:03.86 bitrate=1627.2kbits/s speed=0.0199x elapsed=0:03:14.51    \nframe=  118 fps=0.6 q=39.0 size=     768KiB time=00:00:03.86 bitrate=1627.2kbits/s speed=0.0198x elapsed=0:03:15.05    \nframe=  118 fps=0.6 q=39.0 size=     768KiB time=00:00:03.86 bitrate=1627.2kbits/s speed=0.0198x elapsed=0:03:15.59    \nframe=  118 fps=0.6 q=39.0 size=     768KiB time=00:00:03.86 bitrate=1627.2kbits/s speed=0.0197x elapsed=0:03:16.20    \nframe=  118 fps=0.6 q=39.0 size=     768KiB time=00:00:03.86 bitrate=1627.2kbits/s speed=0.0196x elapsed=0:03:16.78    \nframe=  118 fps=0.6 q=39.0 size=     768KiB time=00:00:03.86 bitrate=1627.2kbits/s speed=0.0196x elapsed=0:03:17.36    \nframe=  118 fps=0.6 q=39.0 size=     768KiB time=00:00:03.86 bitrate=1627.2kbits/s speed=0.0195x elapsed=0:03:17.88    \nframe=  119 fps=0.6 q=32.9 size=     768KiB time=00:00:03.90 bitrate=1613.3kbits/s speed=0.0197x elapsed=0:03:18.43    \nframe=  119 fps=0.6 q=32.9 size=     768KiB time=00:00:03.90 bitrate=1613.3kbits/s speed=0.0196x elapsed=0:03:18.93    \nframe=  120 fps=0.6 q=36.7 size=     768KiB time=00:00:03.93 bitrate=1599.6kbits/s speed=0.0197x elapsed=0:03:19.46    \nframe=  120 fps=0.6 q=36.7 size=     768KiB time=00:00:03.93 bitrate=1599.6kbits/s speed=0.0197x elapsed=0:03:19.99    \nframe=  120 fps=0.6 q=36.7 size=     768KiB time=00:00:03.93 bitrate=1599.6kbits/s speed=0.0196x elapsed=0:03:20.51    \nframe=  120 fps=0.6 q=36.7 size=     768KiB time=00:00:03.93 bitrate=1599.6kbits/s speed=0.0196x elapsed=0:03:21.05    \nframe=  120 fps=0.6 q=36.7 size=     768KiB time=00:00:03.93 bitrate=1599.6kbits/s speed=0.0195x elapsed=0:03:21.63    \nframe=  120 fps=0.6 q=36.7 size=     768KiB time=00:00:03.93 bitrate=1599.6kbits/s speed=0.0195x elapsed=0:03:22.22    \nframe=  120 fps=0.6 q=36.7 size=     768KiB time=00:00:03.93 bitrate=1599.6kbits/s speed=0.0194x elapsed=0:03:22.77    \nframe=  120 fps=0.6 q=36.7 size=     768KiB time=00:00:03.93 bitrate=1599.6kbits/s speed=0.0193x elapsed=0:03:23.30    \nframe=  120 fps=0.6 q=36.7 size=     768KiB time=00:00:03.93 bitrate=1599.6kbits/s speed=0.0193x elapsed=0:03:23.88    \nframe=  121 fps=0.6 q=39.0 size=     768KiB time=00:00:03.96 bitrate=1586.2kbits/s speed=0.0194x elapsed=0:03:24.45    \nframe=  121 fps=0.6 q=39.0 size=     768KiB time=00:00:03.96 bitrate=1586.2kbits/s speed=0.0194x elapsed=0:03:24.97    \nframe=  121 fps=0.6 q=39.0 size=     768KiB time=00:00:03.96 bitrate=1586.2kbits/s speed=0.0193x elapsed=0:03:25.60    \nframe=  121 fps=0.6 q=39.0 size=     768KiB time=00:00:03.96 bitrate=1586.2kbits/s speed=0.0192x elapsed=0:03:26.16    \nframe=  121 fps=0.6 q=39.0 size=     768KiB time=00:00:03.96 bitrate=1586.2kbits/s speed=0.0192x elapsed=0:03:26.71    \nframe=  121 fps=0.6 q=39.0 size=     768KiB time=00:00:03.96 bitrate=1586.2kbits/s speed=0.0191x elapsed=0:03:27.25    \nframe=  122 fps=0.6 q=39.1 size=     768KiB time=00:00:04.00 bitrate=1573.0kbits/s speed=0.0192x elapsed=0:03:27.79    \nframe=  123 fps=0.6 q=32.8 size=     768KiB time=00:00:04.03 bitrate=1560.0kbits/s speed=0.0194x elapsed=0:03:28.31    \nframe=  123 fps=0.6 q=32.8 size=     768KiB time=00:00:04.03 bitrate=1560.0kbits/s speed=0.0193x elapsed=0:03:28.85    \nframe=  123 fps=0.6 q=32.8 size=     768KiB time=00:00:04.03 bitrate=1560.0kbits/s speed=0.0193x elapsed=0:03:29.37    \nframe=  123 fps=0.6 q=32.8 size=     768KiB time=00:00:04.03 bitrate=1560.0kbits/s speed=0.0192x elapsed=0:03:29.91    \nframe=  123 fps=0.6 q=32.8 size=     768KiB time=00:00:04.03 bitrate=1560.0kbits/s speed=0.0192x elapsed=0:03:30.43    \nframe=  124 fps=0.6 q=36.7 size=     768KiB time=00:00:04.06 bitrate=1547.2kbits/s speed=0.0193x elapsed=0:03:30.95    \nframe=  124 fps=0.6 q=36.7 size=     768KiB time=00:00:04.06 bitrate=1547.2kbits/s speed=0.0192x elapsed=0:03:31.47    \nframe=  124 fps=0.6 q=36.7 size=     768KiB time=00:00:04.06 bitrate=1547.2kbits/s speed=0.0192x elapsed=0:03:31.99    \nframe=  125 fps=0.6 q=39.1 size=     768KiB time=00:00:04.10 bitrate=1534.6kbits/s speed=0.0193x elapsed=0:03:32.53    \nframe=  125 fps=0.6 q=39.1 size=     768KiB time=00:00:04.10 bitrate=1534.6kbits/s speed=0.0192x elapsed=0:03:33.05    \nframe=  126 fps=0.6 q=38.8 size=     768KiB time=00:00:04.13 bitrate=1522.2kbits/s speed=0.0194x elapsed=0:03:33.57    \nframe=  126 fps=0.6 q=38.8 size=     768KiB time=00:00:04.13 bitrate=1522.2kbits/s speed=0.0193x elapsed=0:03:34.09    \nframe=  127 fps=0.6 q=32.9 size=    1024KiB time=00:00:04.16 bitrate=2013.4kbits/s speed=0.0194x elapsed=0:03:34.61    \nframe=  127 fps=0.6 q=32.9 size=    1024KiB time=00:00:04.16 bitrate=2013.4kbits/s speed=0.0194x elapsed=0:03:35.13    \nframe=  128 fps=0.6 q=36.7 size=    1024KiB time=00:00:04.20 bitrate=1997.4kbits/s speed=0.0195x elapsed=0:03:35.67    \nframe=  128 fps=0.6 q=36.7 size=    1024KiB time=00:00:04.20 bitrate=1997.4kbits/s speed=0.0194x elapsed=0:03:36.20    \nframe=  128 fps=0.6 q=36.7 size=    1024KiB time=00:00:04.20 bitrate=1997.4kbits/s speed=0.0194x elapsed=0:03:36.71    \nframe=  129 fps=0.6 q=38.6 size=    1024KiB time=00:00:04.23 bitrate=1981.6kbits/s speed=0.0195x elapsed=0:03:37.24    \nframe=  130 fps=0.6 q=38.1 size=    1024KiB time=00:00:04.26 bitrate=1966.2kbits/s speed=0.0196x elapsed=0:03:37.75    \nframe=  131 fps=0.6 q=32.8 size=    1024KiB time=00:00:04.30 bitrate=1950.9kbits/s speed=0.0197x elapsed=0:03:38.26    \nframe=  131 fps=0.6 q=32.8 size=    1024KiB time=00:00:04.30 bitrate=1950.9kbits/s speed=0.0197x elapsed=0:03:38.78    \nframe=  132 fps=0.6 q=36.4 size=    1024KiB time=00:00:04.33 bitrate=1935.9kbits/s speed=0.0198x elapsed=0:03:39.31    \nframe=  133 fps=0.6 q=38.0 size=    1024KiB time=00:00:04.36 bitrate=1921.1kbits/s speed=0.0199x elapsed=0:03:39.84    \nframe=  133 fps=0.6 q=38.0 size=    1024KiB time=00:00:04.36 bitrate=1921.1kbits/s speed=0.0198x elapsed=0:03:40.43    \nframe=  133 fps=0.6 q=38.0 size=    1024KiB time=00:00:04.36 bitrate=1921.1kbits/s speed=0.0198x elapsed=0:03:40.97    \nframe=  133 fps=0.6 q=38.0 size=    1024KiB time=00:00:04.36 bitrate=1921.1kbits/s speed=0.0197x elapsed=0:03:41.51    \nframe=  133 fps=0.6 q=38.0 size=    1024KiB time=00:00:04.36 bitrate=1921.1kbits/s speed=0.0197x elapsed=0:03:42.05    \nframe=  134 fps=0.6 q=38.0 size=    1024KiB time=00:00:04.40 bitrate=1906.6kbits/s speed=0.0198x elapsed=0:03:42.60    \nframe=  134 fps=0.6 q=38.0 size=    1024KiB time=00:00:04.40 bitrate=1906.6kbits/s speed=0.0197x elapsed=0:03:43.13    \nframe=  134 fps=0.6 q=38.0 size=    1024KiB time=00:00:04.40 bitrate=1906.6kbits/s speed=0.0197x elapsed=0:03:43.64    \nframe=  135 fps=0.6 q=32.4 size=    1024KiB time=00:00:04.43 bitrate=1892.2kbits/s speed=0.0198x elapsed=0:03:44.16    \nframe=  136 fps=0.6 q=35.9 size=    1024KiB time=00:00:04.46 bitrate=1878.1kbits/s speed=0.0199x elapsed=0:03:44.68    \nframe=  136 fps=0.6 q=35.9 size=    1024KiB time=00:00:04.46 bitrate=1878.1kbits/s speed=0.0198x elapsed=0:03:45.20    \nframe=  136 fps=0.6 q=35.9 size=    1024KiB time=00:00:04.46 bitrate=1878.1kbits/s speed=0.0198x elapsed=0:03:45.73    \nframe=  136 fps=0.6 q=35.9 size=    1024KiB time=00:00:04.46 bitrate=1878.1kbits/s speed=0.0197x elapsed=0:03:46.25    \nframe=  137 fps=0.6 q=38.0 size=    1024KiB time=00:00:04.50 bitrate=1864.2kbits/s speed=0.0198x elapsed=0:03:46.76    \nframe=  138 fps=0.6 q=38.0 size=    1024KiB time=00:00:04.53 bitrate=1850.5kbits/s speed=0.0199x elapsed=0:03:47.27    \nframe=  138 fps=0.6 q=38.0 size=    1024KiB time=00:00:04.53 bitrate=1850.5kbits/s speed=0.0199x elapsed=0:03:47.79    \nframe=  139 fps=0.6 q=32.6 size=    1024KiB time=00:00:04.56 bitrate=1837.0kbits/s speed=0.02x elapsed=0:03:48.31    \nframe=  139 fps=0.6 q=32.6 size=    1024KiB time=00:00:04.56 bitrate=1837.0kbits/s speed=0.02x elapsed=0:03:48.82    \nframe=  140 fps=0.6 q=35.7 size=    1024KiB time=00:00:04.60 bitrate=1823.7kbits/s speed=0.0201x elapsed=0:03:49.34    \nframe=  140 fps=0.6 q=35.7 size=    1024KiB time=00:00:04.60 bitrate=1823.7kbits/s speed=0.02x elapsed=0:03:49.87    \nframe=  141 fps=0.6 q=37.3 size=    1024KiB time=00:00:04.63 bitrate=1810.6kbits/s speed=0.0201x elapsed=0:03:50.39    \nframe=  141 fps=0.6 q=37.3 size=    1024KiB time=00:00:04.63 bitrate=1810.6kbits/s speed=0.0201x elapsed=0:03:50.90    \nframe=  141 fps=0.6 q=37.3 size=    1024KiB time=00:00:04.63 bitrate=1810.6kbits/s speed=0.02x elapsed=0:03:51.42    \nframe=  143 fps=0.6 q=32.5 size=    1024KiB time=00:00:04.70 bitrate=1784.9kbits/s speed=0.0203x elapsed=0:03:51.94    \nframe=  144 fps=0.6 q=35.0 size=    1024KiB time=00:00:04.73 bitrate=1772.3kbits/s speed=0.0204x elapsed=0:03:52.49    \nframe=  144 fps=0.6 q=35.0 size=    1024KiB time=00:00:04.73 bitrate=1772.3kbits/s speed=0.0203x elapsed=0:03:53.03    \nframe=  144 fps=0.6 q=35.0 size=    1024KiB time=00:00:04.73 bitrate=1772.3kbits/s speed=0.0203x elapsed=0:03:53.56    \nframe=  145 fps=0.6 q=36.8 size=    1024KiB time=00:00:04.76 bitrate=1759.9kbits/s speed=0.0204x elapsed=0:03:54.08    \nframe=  145 fps=0.6 q=36.8 size=    1024KiB time=00:00:04.76 bitrate=1759.9kbits/s speed=0.0203x elapsed=0:03:54.59    \nframe=  145 fps=0.6 q=36.8 size=    1024KiB time=00:00:04.76 bitrate=1759.9kbits/s speed=0.0203x elapsed=0:03:55.10    \nframe=  146 fps=0.6 q=35.7 size=    1024KiB time=00:00:04.80 bitrate=1747.7kbits/s speed=0.0204x elapsed=0:03:55.62    \nframe=  147 fps=0.6 q=33.2 size=    1024KiB time=00:00:04.83 bitrate=1735.6kbits/s speed=0.0205x elapsed=0:03:56.14    \nframe=  147 fps=0.6 q=33.2 size=    1024KiB time=00:00:04.83 bitrate=1735.6kbits/s speed=0.0204x elapsed=0:03:56.66    \nframe=  148 fps=0.6 q=33.4 size=    1024KiB time=00:00:04.86 bitrate=1723.8kbits/s speed=0.0205x elapsed=0:03:57.20    \n[mp4 @ 00000267c657aa80] Starting second pass: moving the moov atom to the beginning of the file\n[out#0/mp4 @ 00000267c657a980] video:1198KiB audio:0KiB subtitle:0KiB other streams:0KiB global headers:2KiB muxing overhead: 0.431732%\nframe=  150 fps=0.6 q=34.9 Lsize=    1203KiB time=00:00:04.93 bitrate=1997.8kbits/s speed=0.0208x elapsed=0:03:57.60    \nx265 [info]: frame I:      1, Avg QP:35.18  kb/s: 6192.24 \nx265 [info]: frame P:     36, Avg QP:33.19  kb/s: 4454.05 \nx265 [info]: frame B:    113, Avg QP:37.80  kb/s: 1130.29 \nx265 [info]: Weighted P-Frames: Y:2.8% UV:2.8%\n\nencoded 150 frames in 237.23s (0.63 fps), 1961.74 kb/s, Avg QP:36.68\n",
  "seconds": 237.92301654815674,
  "probe_out": {}
}